#!OML:ASF F:\VICON\USERDATA\INSTALL\rory3\rory3.ASF
:FULLY-SPECIFIED
:DEGREES
9
root 0.3795333638871017 17.489197442065745 -13.821086420486093 8.403285933980873 -2.7027180950575893 -2.5109888416507027
lfemur -15.779407189186347 8.400822069049351 -17.99400285544492
ltibia 22.211907903015543
lfoot -11.457400846670955 8.214161311727258
ltoes -8.613346392900086
rfemur -16.43310756035395 -2.9423386949494543 21.233308898220507
rtibia 22.77330793901818
rfoot -14.72300001543586 -1.0256935337145356
rtoes 2.638073660735154
lowerback -1.138279992690471 -0.11701042454329058 1.7072225477542404
upperback 3.5438820442927295 -0.2762102933507057 1.6230720028632406
thorax 4.289712621740596 -0.11052310725974762 0.7039971918127585
lowerneck -14.230501094184895 1.0467702125560425 -1.8808818747909326
upperneck 30.5684931397205 2.0775775393038276 -0.14847272280421442
head 12.45979287910626 0.6767585619323787 0.5729385481025775
lclavicle 3.8825761765115744e-16 -1.4342433366814996e-15
lhumerus -22.943900841716435 3.923707745129237 83.94190069582007
lradius 18.653909489805155
lwrist 1.5916639642601744
lhand -22.998211891492662 -3.3895834209138873
lfingers 7.12502
lthumb 3.4448082808851948 26.562286631956944
rclavicle 3.8825761765115744e-16 -1.4342433366814996e-15
rhumerus -21.05240136243282 -16.4679916131927 -79.17059946408493
rradius 25.12980560752326
rwrist 32.23749192256314
rhand -18.9553089271978 -26.314997233040472
rfingers 7.12502
rthumb 7.348301098417123 -56.167397528803306
10
root 0.36618827248405816 17.494197393197794 -13.809286900866226 8.361176026221381 -2.2981910328730195 -2.4480000933245036
lfemur -15.623807551226909 8.341622535335391 -17.98770289366444
ltibia 21.944108397726676
lfoot -11.468400875292993 7.833952140597322
ltoes -8.624006331600615
rfemur -16.24710824405811 -3.2150565632018226 21.2447087341864
rtibia 22.661107483575016
rfoot -14.728600008622614 -1.2077631784055185
rtoes 2.630653753801759
lowerback -1.1885601173099687 -0.2967565294995894 1.6930826779958825
upperback 3.533242032586644 -0.5183452731557925 1.6645810419326261
thorax 4.3077428145487175 -0.23208780531983525 0.7428175414419527
lowerneck -14.26570097055535 1.024040716926252 -1.9011716715407712
upperneck 30.722092696701623 2.043108013585958 -0.1185900923044963
head 12.529592737936241 0.6603601313910361 0.5841133160017821
lclavicle 3.8825761935183047e-16 -1.4342433333407674e-15
lhumerus -22.560301126567314 3.1245186402157197 84.77059948323922
lradius 19.127108622961885
lwrist 2.631492498877723
lhand -23.07451138644571 -3.7156319305341254
lfingers 7.12502
lthumb 3.37109852706036 26.237487891932897
rclavicle 3.8825761935183047e-16 -1.4342433333407674e-15
rhumerus -20.793501526142887 -16.502191425772146 -78.7337999660238
rradius 24.993905973882846
rwrist 32.47379142666783
rhand -18.900009183071276 -26.34779708351879
rfingers 7.12502
rthumb 7.401650745464638 -56.198297404040794
11
root 0.35738087586964107 17.49959736644256 -13.802287303300114 8.337386182823547 -1.9300837498844738 -2.415230746246947
lfemur -15.48560748104033 8.222343488955527 -17.969902999586637
ltibia 21.668307605708858
lfoot -11.450500845426156 7.568932677047327
ltoes -8.507776697161122
rfemur -16.064807537224098 -3.4396947449698185 21.265608511878813
rtibia 22.49700771035232
rfoot -14.713000027189251 -1.3575428207981541
rtoes 2.661973614432974
lowerback -1.1999894729777054 -0.4171296252292498 1.628243157119272
upperback 3.498972331044553 -0.6792911393300856 1.746969141476373
thorax 4.280512757620483 -0.3160375067217209 0.8562005960318618
lowerneck -14.4075004497024 0.9344027702753401 -2.0924099994309575
upperneck 30.92269278196222 1.9057198456797453 0.09493292906614204
head 12.638292475430358 0.6019822018834377 0.6813963947840092
lclavicle 3.882576211264518e-16 -1.434243312252375e-15
lhumerus -22.24170137045838 1.6332409186755594 85.62909822701188
lradius 20.034006943691484
lwrist 3.9950821373151637
lhand -22.89911231337649 -3.594252411616225
lfingers 7.12502
lthumb 3.540547622588262 26.356087501216923
rclavicle 3.882576211264518e-16 -1.434243312252375e-15
rhumerus -20.565101842002953 -16.563091274837298 -78.28580049594515
rradius 25.080305852526763
rwrist 32.16679202260314
rhand -18.714109859149232 -26.5310962663285
rfingers 7.12502
rthumb 7.581110152682054 -56.375196588406524
12
root 0.3540251041332869 17.502997331842767 -13.796687625247221 8.342175891919853 -1.6253660484162533 -2.465089756820328
lfemur -15.446108140666198 8.0633047855004 -17.882803612574588
ltibia 21.543407847488375
lfoot -11.474500816244117 7.434423013231061
ltoes -8.370207070421412
rfemur -15.915107692502843 -3.5491039702930682 21.34980754797585
rtibia 22.30920726574968
rfoot -14.669100081495314 -1.5462725251363463
rtoes 2.6265736719190986
lowerback -1.2567294369818178 -0.45905997685786404 1.6363031419342677
upperback 3.4800324722278138 -0.7401203627513235 1.8394569998481747
thorax 4.294602830018768 -0.3476866162117785 0.943794127100503
lowerneck -14.423900387030589 0.8456467947706162 -2.1168397983395146
upperneck 30.90829234678592 1.7674716817504543 0.14854366888180992
head 12.636692549383485 0.5457721895153971 0.6858523103995887
lclavicle 3.8825761705961924e-16 -1.4342433191426524e-15
lhumerus -21.89380179089107 -0.2406445913807218 86.3182971003207
lradius 21.3319044705669
lwrist 4.989971183591065
lhand -22.648713386638896 -3.567972585202876
lfingers 7.12502
lthumb 3.782296457025186 26.378187567779424
rclavicle 3.8825761705961924e-16 -1.4342433191426524e-15
rhumerus -20.30750197870934 -16.634091196641148 -77.94210089546758
rradius 25.346805644506382
rwrist 31.246693660161935
rhand -18.722109715593334 -26.818594943877418
rfingers 7.12502
rthumb 7.573420168313396 -56.66299538400833
